<?xml version="1.0" encoding="UTF-8"?>
<svg id="Musthave" xmlns="http://www.w3.org/2000/svg" viewBox="0 0 800 800">
  <defs>
    <style>
      .cls-1 {
        fill: #206289;
      }

      .cls-1, .cls-2, .cls-3, .cls-4, .cls-5 {
        stroke-width: 0px;
      }

      .cls-2 {
        fill: #dddddc;
      }

      .cls-3 {
        fill: #64abd6;
      }

      .cls-6 {
        stroke-width: 5px;
      }

      .cls-6, .cls-7 {
        fill: none;
        stroke: #206289;
        stroke-miterlimit: 10;
      }

      .cls-4 {
        fill: #73bbe7;
      }

      .cls-5 {
        fill: #b9ddf3;
      }

      .cls-7 {
        stroke-width: 10px;
      }
    </style>
  </defs>
  <g id="Validität">
    <g>
      <g>
        <line class="cls-7" x1="400.32" y1="317" x2="400.67" y2="698.94"/>
        <polyline class="cls-7" points="589.22 602.6 589.22 666.05 211.77 666.4 211.77 602.6"/>
      </g>
      <g>
        <line class="cls-7" x1="287.89" y1="286.77" x2="514.77" y2="286.77"/>
        <rect class="cls-5" x="287.89" y="129.24" width="39.96" height="130.58"/>
        <rect class="cls-1" x="334.62" y="108.01" width="39.96" height="151.81"/>
        <rect class="cls-4" x="381.35" y="152.61" width="39.96" height="107.21"/>
        <rect class="cls-3" x="428.08" y="87.68" width="39.96" height="172.14"/>
        <rect class="cls-2" x="474.81" y="67.07" width="39.96" height="192.75"/>
      </g>
      <g>
        <path class="cls-2" d="M307,535.49h0s-7.65-17.31-7.65-17.31l-7.71-17.43-7.7-17.44h0s-7.78-17.58-7.78-17.58l-7.9-17.91-7.88-17.8-7.9-17.86-7.78-17.58-7.55-17.12-7.73-17.47h0s-17.81-40.29-17.81-40.29l-83.95,190.27,197.23,65.97-17.89-40.45ZM165.6,493.2l46.1-104.49,62.21,140.72-108.31-36.23Z"/>
        <g>
          <line class="cls-6" x1="258.43" y1="452.16" x2="268.25" y2="447.82"/>
          <line class="cls-6" x1="227.33" y1="381.8" x2="237.15" y2="377.46"/>
          <line class="cls-6" x1="289.54" y1="522.52" x2="299.35" y2="518.18"/>
          <line class="cls-6" x1="242.67" y1="416.49" x2="252.48" y2="412.15"/>
          <line class="cls-6" x1="274.12" y1="487.64" x2="283.94" y2="483.3"/>
          <line class="cls-6" x1="286.16" y1="503.17" x2="291.65" y2="500.74"/>
          <line class="cls-6" x1="270.68" y1="468.15" x2="276.17" y2="465.73"/>
          <line class="cls-6" x1="254.89" y1="432.44" x2="260.38" y2="430.01"/>
          <line class="cls-6" x1="239.22" y1="397" x2="244.71" y2="394.58"/>
          <line class="cls-6" x1="223.93" y1="362.4" x2="229.42" y2="359.98"/>
          <line class="cls-6" x1="301.51" y1="537.91" x2="307" y2="535.48"/>
        </g>
      </g>
      <path class="cls-4" d="M552.63,352.44c-10.94,3.59-20.89,8.88-29.64,15.49l-26.28-13.47c-8.16,7.56-15.27,16.12-21.18,25.42l17.93,23.46c-5.02,9.94-8.43,20.72-10,31.9l-28.12,9.06c-.42,10.85.54,21.92,2.99,32.96l29.27,3.9c3.59,10.94,8.88,20.89,15.49,29.64l-13.47,26.28c7.56,8.16,16.12,15.27,25.42,21.19l23.46-17.93c9.94,5.02,20.72,8.44,31.91,10l9.06,28.11c10.85.42,21.92-.54,32.96-2.99l3.91-29.26c10.94-3.59,20.89-8.88,29.64-15.49l26.27,13.46c8.17-7.56,15.28-16.12,21.2-25.42l-17.93-23.45c5.03-9.95,8.45-20.72,10.01-31.91l28.11-9.05c.42-10.85-.54-21.92-2.99-32.96l-29.26-3.91c-3.59-10.94-8.88-20.89-15.49-29.63l13.47-26.28c-7.57-8.16-16.12-15.27-25.42-21.19l-23.45,17.93c-9.94-5.03-20.72-8.44-31.9-10l-9.06-28.12c-10.85-.42-21.92.54-32.95,3l-3.91,29.26ZM632.69,435.74c7.5,26.63-8,54.29-34.63,61.79-26.63,7.5-54.29-8.01-61.78-34.64-7.5-26.62,8.01-54.28,34.63-61.78,26.63-7.5,54.29,8.01,61.78,34.63Z"/>
    </g>
  </g>
</svg>