<svg xmlns="http://www.w3.org/2000/svg"  viewBox="0 0 100 100" width="100px" height="100px"><path d="M 41.931641 14.962891 C 34.183293 14.961629 26.79582 15.045667 20.855469 15.273438 C 16.895235 15.425285 13.589063 15.636389 11.177734 15.945312 C 9.9720707 16.099775 9.0035726 16.268382 8.1796875 16.521484 C 7.767745 16.648036 7.3905862 16.778696 6.9570312 17.066406 C 6.5234764 17.354117 5.8280614 18.006293 5.8183594 19.050781 C 5.7985344 21.185026 6.0138288 36.203308 6.2304688 50.955078 C 6.4471086 65.706848 6.6679688 79.986328 6.6679688 79.986328 A 2.0002 2.0002 0 0 0 8.7050781 81.955078 L 92.386719 80.40625 A 2.0002 2.0002 0 0 0 94.34375 78.564453 C 94.34375 78.564453 95.016895 70.052704 94.910156 62.011719 C 94.802649 53.989261 93.648436 17.673828 93.648438 17.673828 A 2.0002 2.0002 0 0 0 91.707031 15.738281 C 91.707031 15.738281 70.742862 15.128682 49.759766 14.990234 C 47.136878 14.972929 44.514423 14.963311 41.931641 14.962891 z M 41.929688 18.962891 C 44.503558 18.96331 47.11898 18.972978 49.734375 18.990234 C 57.508425 19.041528 64.677666 19.157061 71.054688 19.277344 L 69.919922 21.638672 A 1.0001 1.0001 0 1 0 71.722656 22.503906 L 73.201172 19.423828 A 1.0001 1.0001 0 0 0 73.246094 19.316406 C 74.041221 19.33223 75.004341 19.34748 75.755859 19.363281 L 74.5625 21.337891 A 1.0006927 1.0006927 0 1 0 76.275391 22.373047 L 78.064453 19.414062 C 79.905142 19.455562 80.233834 19.468079 81.664062 19.503906 L 79.650391 22.205078 A 1.0001 1.0001 0 1 0 81.253906 23.400391 L 84.001953 19.712891 A 1.0001 1.0001 0 0 0 84.095703 19.564453 C 85.82588 19.610338 89.329508 19.6924 89.705078 19.703125 C 89.753239 21.227082 90.057173 30.831464 90.349609 40.701172 L 84.150391 42.982422 A 1.0001243 1.0001243 0 1 0 84.841797 44.859375 L 90.410156 42.810547 C 90.421225 43.188131 90.43045 43.530194 90.441406 43.90625 L 85.988281 45.417969 A 1.0005833 1.0005833 0 0 0 86.632812 47.3125 L 90.5 45.996094 C 90.556021 47.944637 90.617346 49.973326 90.666016 51.755859 L 87.111328 51.378906 A 1.0001 1.0001 0 0 0 87.011719 51.373047 A 1.0001 1.0001 0 0 0 86.900391 53.369141 L 90.71875 53.771484 C 90.810631 57.250769 90.888004 60.413324 90.910156 62.066406 C 90.995376 68.48626 90.620629 74.244871 90.466797 76.441406 L 59.486328 77.015625 L 59.089844 72.634766 A 1.0001 1.0001 0 0 0 58.087891 71.708984 A 1.0001 1.0001 0 0 0 57.097656 72.814453 L 57.482422 77.052734 L 42.925781 77.322266 L 43.625 75.677734 A 1.0001 1.0001 0 0 0 42.697266 74.273438 A 1.0001 1.0001 0 0 0 41.785156 74.894531 L 40.734375 77.363281 L 38.4375 77.404297 L 39.044922 76.464844 A 1.0001 1.0001 0 0 0 38.173828 74.910156 A 1.0001 1.0001 0 0 0 37.367188 75.376953 L 36.025391 77.449219 L 33.369141 77.498047 L 33.761719 76.5625 A 1.0001 1.0001 0 0 0 32.826172 75.164062 A 1.0001 1.0001 0 0 0 31.916016 75.791016 L 31.183594 77.539062 L 29.017578 77.580078 L 29.650391 76.390625 A 1.0001 1.0001 0 0 0 28.748047 74.908203 A 1.0001 1.0001 0 0 0 27.884766 75.451172 L 26.730469 77.621094 L 24.177734 77.669922 L 24.912109 75.890625 A 1.0001 1.0001 0 0 0 23.970703 74.494141 A 1.0001 1.0001 0 0 0 23.064453 75.126953 L 22.027344 77.632812 A 1.0005309 1.0005309 0 0 0 22 77.708984 L 19.542969 77.755859 L 20.060547 76.386719 A 1.0001 1.0001 0 0 0 19.076172 75.019531 A 1.0001 1.0001 0 0 0 18.189453 75.677734 L 17.388672 77.794922 L 10.638672 77.919922 C 10.63614 77.756044 10.606577 75.749707 10.601562 75.425781 L 12.761719 74.884766 A 1.0001 1.0001 0 0 0 12.542969 72.910156 A 1.0001 1.0001 0 0 0 12.275391 72.943359 L 10.570312 73.371094 C 10.564244 72.978451 10.544819 71.679772 10.537109 71.179688 L 13.375 70.46875 A 1.0001 1.0001 0 0 0 13.15625 68.496094 A 1.0001 1.0001 0 0 0 12.888672 68.529297 L 10.505859 69.125 C 10.495599 68.457412 10.480737 67.443356 10.46875 66.660156 L 14.560547 65.634766 A 1.0001 1.0001 0 0 0 14.341797 63.660156 A 1.0001 1.0001 0 0 0 14.074219 63.693359 L 10.4375 64.605469 C 10.36366 59.762018 10.332762 57.861996 10.230469 50.896484 C 10.021826 36.689253 9.8350241 22.78981 9.8339844 20.257812 C 10.29159 20.147212 10.820862 20.024842 11.685547 19.914062 C 12.684071 19.786138 13.930235 19.673356 15.337891 19.572266 L 17.164062 23.287109 A 1.0001 1.0001 0 1 0 18.958984 22.40625 L 17.505859 19.449219 C 18.259661 19.406717 19.017655 19.366212 19.84375 19.330078 L 20.59375 21.203125 A 1.0004702 1.0004702 0 1 0 22.451172 20.458984 L 21.964844 19.242188 C 22.723224 19.215603 23.555275 19.196121 24.357422 19.173828 L 24.765625 21.65625 A 1.0006834 1.0006834 0 1 0 26.740234 21.330078 L 26.375 19.117188 C 27.4581 19.092753 28.59096 19.074615 29.732422 19.056641 L 30.875 23.359375 A 1.0003305 1.0003305 0 1 0 32.808594 22.845703 L 31.792969 19.027344 C 32.769542 19.015365 33.700276 18.998236 34.707031 18.990234 L 35.835938 22.771484 A 1.0007608 1.0007608 0 1 0 37.753906 22.199219 L 36.791016 18.982422 C 38.490211 18.973318 40.17895 18.962605 41.929688 18.962891 z M 32.384766 29.46875 C 31.914785 29.477243 31.426404 29.526297 30.933594 29.630859 C 29.947972 29.839986 28.933137 30.283366 28.132812 31.107422 C 27.332489 31.931478 26.792374 33.120779 26.677734 34.621094 C 26.454855 37.537983 27.740675 39.653025 29.650391 40.478516 C 31.560107 41.304006 33.877334 40.964923 35.857422 39.796875 C 36.895486 39.184298 37.555793 38.252138 37.861328 37.275391 C 38.166863 36.298643 38.153571 35.286189 37.990234 34.349609 C 37.826898 33.41303 37.51137 32.545346 37.134766 31.828125 C 36.758161 31.110904 36.394993 30.5445 35.753906 30.160156 C 35.212111 29.835079 34.555313 29.661833 33.722656 29.548828 C 33.306328 29.492325 32.854746 29.460257 32.384766 29.46875 z M 32.423828 31.470703 C 32.783218 31.463763 33.135157 31.485876 33.455078 31.529297 C 34.094922 31.616137 34.643905 31.826577 34.724609 31.875 A 1.0001 1.0001 0 0 0 34.726562 31.875 C 34.708472 31.86416 35.084198 32.228268 35.363281 32.759766 C 35.642365 33.291264 35.898571 33.988564 36.021484 34.693359 C 36.144398 35.398155 36.132904 36.103013 35.953125 36.677734 C 35.773347 37.252456 35.460779 37.707796 34.839844 38.074219 C 33.316353 38.972289 31.596417 39.140152 30.445312 38.642578 C 29.293779 38.144818 28.493755 37.104548 28.671875 34.773438 C 28.757735 33.649752 29.107184 32.97485 29.568359 32.5 C 30.029535 32.02515 30.647778 31.736389 31.347656 31.587891 C 31.697596 31.513641 32.064438 31.477643 32.423828 31.470703 z M 44.525391 32.65625 C 44.370531 32.683297 44.218375 32.741531 44.078125 32.832031 C 43.517125 33.194031 43.35675 33.944859 43.71875 34.505859 C 44.08075 35.067859 44.829625 35.227234 45.390625 34.865234 C 45.951625 34.502234 46.113953 33.753406 45.751953 33.191406 C 45.480453 32.770656 44.989969 32.575109 44.525391 32.65625 z M 52.970703 32.980469 C 52.815844 33.0075 52.663688 33.06575 52.523438 33.15625 C 51.961437 33.51825 51.800109 34.267125 52.162109 34.828125 C 52.524109 35.389125 53.274938 35.551453 53.835938 35.189453 C 54.396937 34.827453 54.558266 34.078578 54.197266 33.517578 C 53.925766 33.096078 53.435281 32.899375 52.970703 32.980469 z M 59.626953 36.03125 A 1.0001 1.0001 0 0 0 58.761719 36.539062 L 49.923828 52.142578 L 43.050781 46.466797 A 1.0001 1.0001 0 0 0 41.572266 46.695312 L 31.296875 62.677734 A 1.0001 1.0001 0 0 0 31.201172 62.855469 C 25.833664 63.180378 22.332031 63.619141 22.332031 63.619141 A 1.000153 1.000153 0 1 0 22.583984 65.603516 C 22.583984 65.603516 32.291851 64.363831 44.326172 64.53125 A 1.0001571 1.0001571 0 0 0 44.820312 64.544922 C 46.413833 64.572038 48.037368 64.617916 49.691406 64.701172 C 64.31976 65.437488 82.246094 63.154297 82.246094 63.154297 A 1.0001 1.0001 0 0 0 82.164062 61.160156 A 1.0001 1.0001 0 0 0 81.994141 61.169922 C 81.994141 61.169922 79.935142 61.422196 76.822266 61.724609 L 71.792969 53.962891 A 1.0001 1.0001 0 0 0 71.392578 53.345703 L 65.533203 44.302734 A 1.0001 1.0001 0 0 0 65.224609 43.826172 L 60.470703 36.488281 A 1.0001 1.0001 0 0 0 59.626953 36.03125 z M 48.630859 37.783203 C 48.476 37.810234 48.323844 37.866531 48.183594 37.957031 C 47.621594 38.319031 47.460266 39.069859 47.822266 39.630859 C 48.184266 40.192859 48.935094 40.354188 49.496094 39.992188 C 50.057094 39.630188 50.219422 38.879359 49.857422 38.318359 C 49.585922 37.896859 49.095437 37.702109 48.630859 37.783203 z M 59.689453 38.958984 L 63.232422 44.427734 L 62.048828 45.462891 A 1.0007103 1.0007103 0 1 0 63.367188 46.96875 L 64.332031 46.125 L 67.6875 51.302734 L 66.402344 52.144531 A 1.0002831 1.0002831 0 1 0 67.498047 53.818359 L 68.775391 52.982422 L 69.332031 53.839844 L 66.744141 55.283203 A 1.0006911 1.0006911 0 1 0 67.71875 57.03125 L 70.421875 55.523438 L 71.144531 56.636719 L 69.378906 57.492188 A 1.0001 1.0001 0 1 0 70.251953 59.291016 L 72.240234 58.326172 L 74.574219 61.929688 C 68.052396 62.506432 58.333948 63.133034 49.792969 62.703125 C 48.618447 62.644006 47.460924 62.604528 46.314453 62.574219 L 47.900391 59.773438 L 49.611328 60.955078 A 1.0003799 1.0003799 0 1 0 50.748047 59.308594 L 48.888672 58.027344 L 49.287109 57.324219 L 51.564453 58.708984 A 1.0001 1.0001 0 1 0 52.603516 57 L 50.273438 55.583984 L 59.689453 38.958984 z M 42.646484 48.724609 L 48.921875 53.910156 L 44.039062 62.53125 C 40.244721 62.486042 36.735681 62.577919 33.644531 62.724609 L 38.525391 55.134766 L 39.671875 56.269531 A 1.0005953 1.0005953 0 1 0 41.080078 54.847656 L 39.630859 53.414062 L 42.646484 48.724609 z"/></svg>