<svg xmlns="http://www.w3.org/2000/svg"  viewBox="0 0 100 100" width="300px" height="300px"><path d="M 50.464844 3.6484375 C 35.024466 3.5011098 22.530407 15.995169 22.677734 31.435547 C 22.745904 38.484068 25.162248 43.220341 29.029297 48.722656 A 2.0002 2.0002 0 0 0 29.224609 49.052734 C 29.224609 49.052734 36.168678 58.93487 36.5625 70.150391 A 2.0002 2.0002 0 0 0 36.068359 71.513672 L 36.447266 87.103516 A 2.0002 2.0002 0 0 0 37.171875 88.59375 L 47.544922 97.1875 A 2.0002 2.0002 0 0 0 50.121094 97.167969 L 60.365234 88.402344 A 2.0002 2.0002 0 0 0 61.0625 86.984375 L 61.863281 71.214844 A 2.0002 2.0002 0 0 0 61.46875 69.919922 A 2.0002 2.0002 0 0 0 61.482422 69.814453 C 62.769581 58.897177 68.402273 53.691708 69.076172 53.099609 A 2.0002 2.0002 0 0 0 69.337891 52.900391 C 75.155291 47.810976 78.790514 40.279048 78.710938 31.894531 C 78.562538 16.453443 65.906104 3.7957634 50.464844 3.6484375 z M 49.931641 7.65625 L 51.691406 12.599609 A 1.0001 1.0001 0 1 0 53.574219 11.927734 L 52.078125 7.7265625 C 61.702389 8.4714995 69.835051 14.859506 73.134766 23.558594 L 68.306641 24.560547 A 1.0003321 1.0003321 0 0 0 68.712891 26.519531 L 73.765625 25.470703 C 74.008307 26.315996 74.208692 27.177771 74.359375 28.056641 L 67.087891 28.316406 A 1.0001 1.0001 0 1 0 67.158203 30.314453 L 74.613281 30.048828 C 74.667487 30.670931 74.704845 31.297697 74.710938 31.931641 C 74.761364 37.244857 73.075956 42.107703 70.197266 46.039062 L 66.507812 41.585938 A 1.0001 1.0001 0 0 0 65.720703 41.212891 A 1.0001 1.0001 0 0 0 64.966797 42.861328 L 68.916016 47.628906 C 68.418136 48.198078 67.893701 48.742631 67.34375 49.261719 L 64.261719 45.390625 A 1.0001 1.0001 0 0 0 63.484375 45.001953 A 1.0001 1.0001 0 0 0 62.697266 46.636719 L 65.857422 50.605469 A 1.0001 1.0001 0 0 0 65.890625 50.646484 C 63.905196 52.713834 58.838186 58.859101 57.556641 69.097656 C 56.322015 69.074303 55.121437 69.065294 53.925781 69.058594 C 53.208105 61.898999 52.440314 55.306367 51.556641 49.865234 A 1.0001 1.0001 0 0 0 51.974609 49.382812 L 59.380859 32.363281 A 1.0001 1.0001 0 0 0 58.443359 30.964844 A 1.0001 1.0001 0 0 0 58.125 31.023438 C 51.196936 33.50712 44.791392 33.35525 38.65625 31.113281 A 1.0001 1.0001 0 0 0 37.412109 32.488281 L 45.876953 49.976562 C 45.099941 55.56742 44.892947 62.252331 44.773438 69.175781 C 43.316464 69.224781 41.887251 69.285925 40.496094 69.363281 C 40.010278 60.43812 36.177771 52.813394 33.986328 49.136719 A 2.0002 2.0002 0 0 0 33.625 48.337891 C 31.968453 46.087727 30.63272 44.180645 29.578125 42.335938 L 32.886719 40.078125 A 1.0001 1.0001 0 0 0 32.291016 38.246094 A 1.0001 1.0001 0 0 0 31.759766 38.427734 L 28.650391 40.548828 C 28.182048 39.556757 27.784864 38.556476 27.486328 37.507812 L 32.435547 35.292969 A 1.0001 1.0001 0 0 0 32.076172 33.375 A 1.0001 1.0001 0 0 0 31.619141 33.466797 L 27.035156 35.517578 C 26.815237 34.257883 26.692359 32.908743 26.677734 31.396484 C 26.676584 31.275891 26.68298 31.157255 26.683594 31.037109 L 31.533203 30.101562 A 1.0001 1.0001 0 0 0 31.322266 28.117188 A 1.0001 1.0001 0 0 0 31.154297 28.138672 L 26.775391 28.982422 C 26.934847 27.208975 27.291972 25.496327 27.816406 23.863281 L 30.554688 25.025391 A 1.0001 1.0001 0 1 0 31.335938 23.185547 L 28.507812 21.982422 C 29.295416 20.101634 30.320964 18.350557 31.544922 16.761719 L 33.464844 18.683594 A 1.0001 1.0001 0 1 0 34.878906 17.269531 L 32.833984 15.224609 C 36.09463 11.670487 40.445039 9.1399126 45.384766 8.1328125 L 46.628906 10.380859 A 1.000122 1.000122 0 1 0 48.378906 9.4121094 L 47.488281 7.8046875 C 48.290855 7.7146628 49.105368 7.6650746 49.931641 7.65625 z M 15.539062 8.75 A 1.0001 1.0001 0 0 0 15.070312 10.611328 L 19.447266 13.273438 A 1.0001 1.0001 0 1 0 20.486328 11.566406 L 16.109375 8.9023438 A 1.0001 1.0001 0 0 0 15.539062 8.75 z M 83.167969 9.8808594 A 1.0001 1.0001 0 0 0 82.552734 10.111328 L 77.652344 14.078125 A 1.0001 1.0001 0 1 0 78.910156 15.632812 L 83.810547 11.666016 A 1.0001 1.0001 0 0 0 83.167969 9.8808594 z M 40.603516 13.451172 C 40.226313 13.519375 39.911828 13.806828 39.830078 14.205078 C 39.720078 14.736078 40.063656 15.265766 40.597656 15.384766 C 41.131656 15.504766 41.651719 15.171625 41.761719 14.640625 C 41.871719 14.109625 41.526141 13.580937 40.994141 13.460938 C 40.860641 13.430937 40.72925 13.428438 40.603516 13.451172 z M 46.505859 19.230469 C 46.128656 19.298672 45.814172 19.586125 45.732422 19.984375 C 45.621422 20.515375 45.966 21.043109 46.5 21.162109 C 47.034 21.282109 47.554063 20.948969 47.664062 20.417969 C 47.774062 19.885969 47.430438 19.357281 46.898438 19.238281 C 46.764937 19.208281 46.631594 19.207734 46.505859 19.230469 z M 40.263672 22.777344 C 39.886469 22.845547 39.571984 23.133 39.490234 23.53125 C 39.379234 24.06225 39.723813 24.591938 40.257812 24.710938 C 40.791812 24.830937 41.313828 24.497797 41.423828 23.966797 C 41.533828 23.435797 41.18825 22.907109 40.65625 22.787109 C 40.52275 22.757109 40.389406 22.754609 40.263672 22.777344 z M 13.929688 25.847656 A 1.0001 1.0001 0 1 0 13.921875 27.847656 L 19.017578 27.865234 A 1.0001 1.0001 0 1 0 19.023438 25.865234 L 13.929688 25.847656 z M 56.720703 33.464844 L 50.992188 46.630859 C 50.632268 44.723233 50.255154 42.980295 49.853516 41.470703 A 1.0001 1.0001 0 0 0 48.896484 40.728516 A 1.0001 1.0001 0 0 0 47.960938 41.351562 C 47.341286 42.874107 46.850068 44.637196 46.453125 46.578125 L 40.169922 33.59375 C 45.432789 35.092324 50.960085 35.130916 56.720703 33.464844 z M 86.824219 33.9375 A 1.0001 1.0001 0 0 0 86.65625 33.951172 L 81.876953 34.683594 A 1.0001 1.0001 0 1 0 82.179688 36.660156 L 86.958984 35.927734 A 1.0001 1.0001 0 0 0 86.824219 33.9375 z M 48.693359 46.146484 C 49.905761 52.090959 50.974946 59.856113 51.912109 69.056641 C 50.156926 69.060632 48.449297 69.08447 46.779297 69.125 C 46.9427 60.341133 47.359885 52.058622 48.693359 46.146484 z M 77.136719 49.025391 A 1.0001 1.0001 0 0 0 76.820312 50.980469 L 81.984375 52.634766 A 1.0001 1.0001 0 1 0 82.595703 50.730469 L 77.431641 49.076172 A 1.0001 1.0001 0 0 0 77.136719 49.025391 z M 25.638672 52.638672 A 1.0001 1.0001 0 0 0 24.957031 52.951172 L 21.298828 56.710938 A 1.0001 1.0001 0 1 0 22.732422 58.105469 L 26.390625 54.345703 A 1.0001 1.0001 0 0 0 25.638672 52.638672 z M 52.976562 73.025391 C 54.545315 73.038483 56.148872 73.065531 57.763672 73.097656 L 57.648438 75.365234 C 55.53063 74.73518 53.443146 74.572897 51.466797 74.722656 C 46.683847 75.085089 42.579127 77.21539 40.244141 78.693359 L 40.115234 73.380859 C 42.771124 73.224142 45.469833 73.08454 48.396484 73.037109 C 49.873864 73.013164 51.40781 73.012298 52.976562 73.025391 z M 53.257812 76.697266 C 54.661874 76.726039 56.101551 76.94511 57.542969 77.423828 L 57.283203 82.53125 C 55.462398 81.949853 53.600597 81.676399 51.789062 81.611328 C 47.137161 81.444231 42.841107 82.641871 40.361328 83.515625 L 40.302734 81.074219 C 42.214096 79.743494 47.371205 76.576631 53.257812 76.697266 z M 51.720703 83.654297 C 53.547088 83.706815 55.407076 83.990692 57.177734 84.615234 L 57.111328 85.921875 L 53.185547 89.28125 C 51.880623 88.810657 50.673761 88.538661 49.580078 88.412109 C 48.096503 88.240442 46.818009 88.332849 45.773438 88.541016 C 45.075443 88.680118 44.514306 88.87633 44.021484 89.076172 L 40.423828 86.095703 L 40.414062 85.654297 C 42.573514 84.870589 46.993633 83.518369 51.720703 83.654297 z M 48.4375 90.324219 C 49.309535 90.35387 50.299008 90.493672 51.404297 90.804688 L 48.798828 93.033203 L 45.845703 90.587891 C 45.959355 90.560671 46.042825 90.526504 46.166016 90.501953 C 46.805618 90.374488 47.562325 90.29446 48.4375 90.324219 z"/></svg>