<?xml version="1.0" encoding="UTF-8"?>
<svg id="Musthave" xmlns="http://www.w3.org/2000/svg" viewBox="0 0 800 800">
  <defs>
    <style>
      .cls-1 {
        fill: #308fc9;
      }

      .cls-1, .cls-2, .cls-3, .cls-4 {
        stroke-width: 0px;
      }

      .cls-2 {
        fill: #eee;
        opacity: .8;
      }

      .cls-3 {
        fill: #206289;
      }

      .cls-4 {
        fill: #73bbe7;
      }
    </style>
  </defs>
  <g id="Transparenz">
    <g>
      <g>
        <g>
          <path class="cls-4" d="M687.28,462.11v200.05h-311.29v-200.05c0-54.92,49.77-101.06,117.08-114.04,12.33-2.37,25.25-3.64,38.56-3.64,5.37,0,10.67.2,15.89.61,2.81.21,5.6.48,8.37.81,4.85.58,9.62,1.32,14.31,2.22,67.31,12.98,117.08,59.12,117.08,114.04Z"/>
          <path class="cls-4" d="M613.65,263.19c0,36.76-17.59,68.7-43.45,84.88-4.53,2.84-9.32,5.19-14.31,7-2.73.99-5.52,1.82-8.37,2.47-5.14,1.19-10.46,1.81-15.89,1.81-13.94,0-27.07-4.08-38.56-11.28-25.85-16.17-43.45-48.12-43.45-84.88,0-53.11,36.71-96.17,82.01-96.17,5.43,0,10.76.62,15.89,1.81,2.85.65,5.64,1.47,8.37,2.47,33.46,12.13,57.76,48.69,57.76,91.89Z"/>
        </g>
        <g>
          <polygon class="cls-2" points="531.63 146.23 531.63 574.95 397.29 574.95 511.38 460.85 508.42 457.89 505.46 454.93 385.44 574.95 357.24 574.95 429.63 502.56 426.67 499.59 423.72 496.63 360.1 560.25 345.4 574.95 146.29 574.95 146.29 146.23 278.1 146.23 167.09 257.24 170.04 260.2 173.01 263.16 289.93 146.23 318.13 146.23 248.82 215.54 251.78 218.5 254.75 221.45 329.97 146.23 531.63 146.23"/>
          <path class="cls-3" d="M137.93,137.87v445.44h402.07V137.87H137.93ZM531.64,574.95h-134.35l114.1-114.09-2.96-2.97-2.96-2.96-120.02,120.02h-28.2l72.39-72.39-2.96-2.97-2.96-2.95-63.62,63.61-14.7,14.7h-199.1V146.24h131.81l-111.02,111,2.96,2.96,2.97,2.96,116.92-116.92h28.19l-69.3,69.3,5.92,5.92,75.22-75.22h201.67v428.71Z"/>
        </g>
      </g>
      <g>
        <path class="cls-1" d="M307.22,416.89c-5.11-1.59-15.22-5.47-24.61-14.8-9.54-9.48-13.47-19.74-15.06-24.87-1.91,5.38-6.11,14.94-15.06,24.01-9.28,9.4-19.19,13.73-24.61,15.66,5.2,1.66,14.73,5.46,23.75,14.11,10.05,9.64,14.23,20.27,15.92,25.56,1.89-5.45,6.27-15.74,16.09-25.21,8.91-8.59,18.24-12.61,23.58-14.46Z"/>
        <path class="cls-1" d="M193.78,417.73c-2.66-.82-7.91-2.84-12.79-7.69-4.96-4.93-7-10.26-7.82-12.92-.99,2.79-3.17,7.76-7.83,12.48-4.82,4.89-9.97,7.14-12.79,8.14,2.7.86,7.65,2.84,12.34,7.33,5.22,5.01,7.39,10.53,8.27,13.28.98-2.83,3.26-8.18,8.36-13.1,4.63-4.47,9.48-6.55,12.25-7.51Z"/>
        <path class="cls-1" d="M171.11,332.68c-3.76-1.17-11.2-4.02-18.11-10.89-7.02-6.98-9.91-14.53-11.08-18.3-1.41,3.96-4.49,10.99-11.08,17.67-6.83,6.92-14.12,10.11-18.11,11.53,3.83,1.22,10.84,4.02,17.48,10.39,7.4,7.09,10.47,14.92,11.72,18.81,1.39-4.01,4.61-11.59,11.84-18.56,6.56-6.32,13.43-9.28,17.35-10.64Z"/>
      </g>
    </g>
  </g>
</svg>