<?xml version="1.0" encoding="UTF-8"?>
<svg id="Musthave" xmlns="http://www.w3.org/2000/svg" viewBox="0 0 800 800">
  <defs>
    <style>
      .cls-1, .cls-2 {
        stroke-width: 5px;
      }

      .cls-1, .cls-2, .cls-3 {
        stroke: #206289;
        stroke-miterlimit: 10;
      }

      .cls-1, .cls-4 {
        fill: #73bbe7;
      }

      .cls-5 {
        fill: #308fc9;
      }

      .cls-5, .cls-6, .cls-7, .cls-8, .cls-4, .cls-9 {
        stroke-width: 0px;
      }

      .cls-6 {
        fill: #206289;
      }

      .cls-7 {
        fill: #64abd6;
      }

      .cls-8 {
        fill: #dddddc;
        opacity: .8;
      }

      .cls-2, .cls-3 {
        fill: none;
      }

      .cls-3 {
        stroke-width: 18px;
      }

      .cls-9 {
        fill: #b9ddf3;
      }
    </style>
  </defs>
  <g id="Aufgaben">
    <g>
      <rect class="cls-5" x="200.94" y="86.68" width="401.21" height="569.08"/>
      <g>
        <polygon class="cls-9" points="499.39 224.38 499.39 685.72 98.26 685.72 98.26 116.75 391.75 116.75 499.39 224.38"/>
        <g>
          <g>
            <polygon class="cls-1" points="467.23 255.54 467.23 276.54 178.13 276.54 178.13 619.45 130.41 619.45 130.41 255.45 178.13 255.45 178.13 255.54 467.23 255.54"/>
            <path class="cls-6" d="M465.36,257.9v80.78c-8.86-6.23-18.36-11.05-28.22-14.49-12.44-4.36-25.46-6.52-38.45-6.52-13.04,0-26.07,2.18-38.48,6.52-8.55,2.99-16.82,6.99-24.59,12.01-5.13,3.29-10.04,7.04-14.68,11.22-.33.3-.67.6-.99.9-.93.86-1.86,1.73-2.76,2.63-1.51,1.47-2.99,2.99-4.43,4.57-1.11,1.22-2.2,2.46-3.25,3.71-6.32,7.54-11.54,15.65-15.64,24.14-.16.33-.32.65-.48.98-1.53,3.26-2.91,6.57-4.13,9.92-.33.93-.66,1.87-.97,2.82-2.34,6.96-3.99,14.1-4.95,21.31h0c-.5,3.63-.82,7.26-.97,10.92-.07,1.72-.1,3.45-.09,5.19.02,4.36.28,8.7.79,13.03.23,1.98.51,3.95.84,5.91.47,2.83,1.06,5.63,1.74,8.41,1.91,7.82,4.65,15.47,8.2,22.81.21.45.42.88.65,1.32,1.41,2.86,2.96,5.65,4.63,8.4.52.86,1.05,1.72,1.6,2.56,4.61,7.2,10.11,13.98,16.46,20.19.47.47.94.93,1.43,1.38.5.47,1,.95,1.5,1.41,2.75,2.51,5.59,4.87,8.51,7.06,3.81,2.89,7.75,5.5,11.82,7.84,6.84,3.97,13.97,7.16,21.31,9.6,11.96,4,24.42,5.99,36.86,5.99,15.93,0,31.83-3.26,46.64-9.73,6.99-3.05,13.73-6.81,20.1-11.29v89.2H132.57v-360.7h332.79M470.36,252.9H127.57v370.7h342.79v-103.83l-7.88,5.54c-5.99,4.21-12.46,7.84-19.22,10.8-14.14,6.18-29.15,9.31-44.64,9.31-12.04,0-23.91-1.93-35.28-5.73-7.09-2.36-13.95-5.45-20.39-9.18-3.9-2.25-7.7-4.77-11.31-7.5-2.78-2.09-5.52-4.36-8.16-6.77-.3-.28-.61-.57-.93-.87l-.52-.49-.02-.02-.02-.02c-.38-.35-.77-.73-1.28-1.23l-.02-.02-.02-.02c-6-5.87-11.3-12.37-15.75-19.31v-.02s-.03-.02-.03-.02c-.56-.85-1.1-1.74-1.5-2.41-1.68-2.77-3.12-5.39-4.42-8.02l-.03-.05-.03-.05c-.19-.37-.37-.74-.55-1.12v-.03s-.03-.03-.03-.03c-3.37-6.97-6.01-14.31-7.84-21.82-.69-2.82-1.23-5.45-1.67-8.04-.32-1.88-.59-3.79-.81-5.67-.48-4.1-.74-8.3-.76-12.48,0-1.66.02-3.33.09-4.96.14-3.51.46-7.02.93-10.43l.05-.34v-.02c.93-6.81,2.5-13.56,4.69-20.05.29-.89.59-1.74.94-2.74,1.14-3.13,2.47-6.32,3.93-9.43l.22-.44.25-.52c3.97-8.21,9-15.98,14.97-23.11.96-1.14,2.01-2.34,3.12-3.56,1.31-1.44,2.73-2.91,4.22-4.35l.02-.02.02-.02c.8-.8,1.62-1.57,2.62-2.49.21-.2.42-.38.62-.56l.34-.31c4.4-3.96,9.12-7.57,14.02-10.71,7.32-4.73,15.23-8.6,23.54-11.5,11.85-4.14,24.24-6.24,36.83-6.24,12.59,0,24.97,2.1,36.79,6.24,9.59,3.35,18.67,8.01,27,13.86l7.88,5.54v-95.41h0Z"/>
            <line class="cls-2" x1="130.62" y1="276.51" x2="464.24" y2="276.51"/>
            <polyline class="cls-2" points="178.19 620.79 178.19 618.6 178.19 586.16 178.19 551.12 178.19 518.52 178.19 485.99 178.19 453.45 178.19 418.41 178.19 383.37 178.19 348.32 178.19 313.28 178.19 276.54 178.19 276.51 178.19 257.9 178.19 256.23"/>
            <polyline class="cls-2" points="317.19 620.79 317.19 618.6 317.19 586.16 317.19 551.12 317.19 518.52 317.19 517.14"/>
            <polyline class="cls-3" points="332.31 509.92 332.31 464.41 332.31 409.05 332.31 357.53"/>
            <polyline class="cls-2" points="317.19 353.68 317.19 350.97 317.19 314.92 317.19 277.12 317.19 277.09 317.19 257.95 317.19 256.1"/>
            <line class="cls-2" x1="131.82" y1="313.28" x2="465.45" y2="313.28"/>
            <line class="cls-2" x1="465.45" y1="348.32" x2="465.36" y2="348.32"/>
            <line class="cls-3" x1="454.69" y1="348.32" x2="341.62" y2="348.32"/>
            <polyline class="cls-2" points="323.69 348.32 320.87 348.32 179.11 348.32 179.05 348.32 132.58 348.32 131.82 348.32"/>
            <polyline class="cls-3" points="494.53 383.37 494.42 383.37 308.37 383.37"/>
            <polyline class="cls-2" points="296.12 383.37 178.83 383.37 178.77 383.37 132.58 383.37 131.82 383.37"/>
            <polyline class="cls-3" points="494.53 418.41 494.42 418.41 313.49 418.41 298.96 418.41"/>
            <polyline class="cls-2" points="287.75 418.41 179.54 418.41 179.48 418.41 132.59 418.41 131.82 418.41"/>
            <polyline class="cls-3" points="494.53 453.45 494.42 453.45 313.49 453.45 299.86 453.45"/>
            <polyline class="cls-2" points="291.08 453.45 180.37 453.45 180.31 453.45 132.6 453.45 131.82 453.45"/>
            <polyline class="cls-3" points="488.39 485.99 488.27 485.99 308.37 485.99"/>
            <polyline class="cls-2" points="301.18 485.99 180.09 485.99 180.03 485.99 132.6 485.99 131.82 485.99"/>
            <line class="cls-3" x1="454.69" y1="520.52" x2="338.08" y2="520.52"/>
            <polyline class="cls-2" points="325.99 518.52 324.51 518.52 180.02 518.52 179.96 518.52 132.6 518.52 131.82 518.52"/>
            <line class="cls-2" x1="131.09" y1="551.12" x2="464.72" y2="551.12"/>
            <line class="cls-2" x1="131.09" y1="586.16" x2="464.72" y2="586.16"/>
          </g>
          <g>
            <circle class="cls-8" cx="398.38" cy="434.36" r="97.2"/>
            <path class="cls-6" d="M487.01,499.11h0l-8.17,8.94-7.47,8.18h0s4.92,4.5,4.92,4.5c2.85-2.55,5.62-5.27,8.25-8.16s5.11-5.88,7.4-8.95l-4.92-4.51Z"/>
            <path class="cls-7" d="M317.19,383.37v2.44c.29-.49.58-.97.88-1.46.2-.33.41-.66.63-.98h-1.51ZM317.19,383.37v2.44c.29-.49.58-.97.88-1.46.2-.33.41-.66.63-.98h-1.51ZM317.19,383.37v2.44c.29-.49.58-.97.88-1.46.2-.33.41-.66.63-.98h-1.51ZM317.19,383.37v2.44c.29-.49.58-.97.88-1.46.2-.33.41-.66.63-.98h-1.51ZM317.19,383.37v2.44c.29-.49.58-.97.88-1.46.2-.33.41-.66.63-.98h-1.51Z"/>
            <path class="cls-6" d="M487.01,499.11l4.92,4.51s0-.01.01-.01l-4.93-4.5Z"/>
            <path class="cls-6" d="M499.39,375.76c-.13-.24-.27-.48-.41-.72-2.1-3.58-4.41-7.06-6.93-10.44-4.33-5.84-9.3-11.35-14.87-16.45-3.78-3.46-7.73-6.61-11.82-9.47-8.86-6.23-18.36-11.05-28.22-14.49-24.94-8.73-52.15-8.66-76.93,0-8.55,2.99-16.82,6.99-24.59,12.01-5.13,3.29-10.04,7.04-14.68,11.22-.33.3-.67.6-.99.9-.93.86-1.86,1.73-2.76,2.63-1.51,1.47-2.99,2.99-4.43,4.57-1.11,1.22-2.2,2.46-3.25,3.71-6.32,7.54-11.54,15.65-15.64,24.14-.16.33-.32.65-.48.98-1.53,3.26-2.91,6.57-4.13,9.92-.33.93-.66,1.87-.97,2.82-2.34,6.96-3.99,14.1-4.95,21.31h0c-.5,3.63-.82,7.26-.97,10.92-.07,1.72-.1,3.45-.09,5.19.02,4.36.28,8.7.79,13.03.23,1.98.51,3.95.84,5.91.47,2.83,1.06,5.63,1.74,8.41,1.91,7.82,4.65,15.47,8.2,22.81.21.45.42.88.65,1.32,1.41,2.86,2.96,5.65,4.63,8.4.52.86,1.05,1.72,1.6,2.56,4.61,7.2,10.11,13.98,16.46,20.19.47.47.94.93,1.43,1.38.5.47,1,.95,1.5,1.41,2.75,2.51,5.59,4.87,8.51,7.06,3.81,2.89,7.75,5.5,11.82,7.84,6.84,3.97,13.97,7.16,21.31,9.6,27.28,9.12,57.14,7.78,83.5-3.74,6.99-3.05,13.73-6.81,20.1-11.29,3.77-2.63,7.42-5.53,10.92-8.67l-4.92-4.49h0s7.47-8.19,7.47-8.19l8.17-8.94h0l4.93,4.5c2.13-2.86,4.12-5.78,5.94-8.78.38-.6.74-1.22,1.1-1.83.14-.24.28-.47.41-.71,20.97-36.15,20.7-80.8,0-116.53ZM468.5,497.91c-1.02,1.11-2.07,2.21-3.14,3.27-7.21,7.18-15.31,12.96-23.98,17.34-7.92,4-16.32,6.84-24.91,8.47-11.77,2.26-23.91,2.27-35.72,0-8.54-1.63-16.9-4.45-24.85-8.47-7.49-3.8-14.61-8.67-21.11-14.62-2.83-2.58-5.47-5.29-7.89-8.12-.39-.47-.78-.93-1.17-1.39-2.24-2.71-4.32-5.51-6.21-8.4-.29-.43-.57-.87-.85-1.32-.52-.8-1.01-1.61-1.48-2.42-3.85-6.48-6.86-13.33-9.02-20.39-.85-2.78-1.57-5.58-2.15-8.41-.49-2.28-.88-4.59-1.18-6.89-.53-3.99-.82-8.01-.84-12.05-.01-1.73.03-3.47.11-5.19.19-3.66.58-7.29,1.18-10.91h0c1.28-7.64,3.49-15.16,6.65-22.38.26-.59.52-1.18.8-1.76,1.33-2.88,2.82-5.7,4.45-8.46v-2.44h1.51c2.91-4.61,6.28-9.02,10.09-13.18,3.7-4.06,7.69-7.72,11.87-10.96,5.59-4.35,11.56-7.99,17.8-10.91,2.25-1.05,4.54-2.02,6.87-2.89,18.73-7.03,39.3-7.95,58.58-2.63,5.08,1.4,10.08,3.24,14.92,5.52,6.21,2.92,12.18,6.55,17.78,10.91,2.03,1.55,3.99,3.21,5.9,4.96.97.9,1.93,1.8,2.85,2.74,35.84,35.55,37.52,93.38,3.14,130.98Z"/>
            <polygon class="cls-6" points="541.28 548.72 525.63 565.83 509.57 551.15 500.03 542.43 476.28 520.73 471.36 516.23 478.83 508.05 487.01 499.11 491.94 503.61 498.56 509.67 525.22 534.03 541.28 548.72"/>
            <rect class="cls-6" x="585.45" y="504.65" width="36.07" height="233.3" transform="translate(-262.27 647.48) rotate(-47.57)"/>
          </g>
        </g>
      </g>
      <polygon class="cls-4" points="499.39 223.81 499.39 223.82 392.32 223.82 392.32 116.75 392.35 116.78 499.39 223.81"/>
    </g>
  </g>
</svg>